<svg version="1" xmlns="http://www.w3.org/2000/svg" width="682.667" height="682.667" viewBox="0 0 512.000000 512.000000"><path d="M195.5 13.1c-3.3.5-7.7 1.1-9.7 1.3-13.5 1.8-41.7 9.8-53.8 15.3-28.5 12.8-44 23.2-63.6 42.8-24.2 24-41.3 52.4-52.2 86.5-3.9 12.2-4.3 15.3-4.7 33.5-1.1 46.9 18.4 101.3 52.2 145.8 16.5 21.8 40.9 46.4 57.9 58.3 5.6 3.9 5.8 4 5 .8-.4-1.6-1-4.7-1.2-6.8-.3-2.2-.7-4.3-.9-4.6-.2-.4-.7-2.9-1-5.6-.3-2.7-.8-6-1.1-7.4-1.3-5.8-1.2-24.9.2-33 .7-4.7 1.6-10.3 2-12.5 2.1-14.8 9.4-28.2 24.9-45.5 3.7-4.1 10-11.1 13.9-15.5 20.2-22.6 44.1-43.9 78.1-69.6 26.3-19.8 34.6-26.9 48.7-41.1 13.9-14.1 24.7-27.7 30.2-37.9 1.9-3.6 6-12.8 9-20.5 3.1-7.6 6.5-15.4 7.7-17.3 1.8-2.9 2.2-3.2 3.5-1.9 1.7 1.7 4 13.1 5.1 25.4 1 11.5.9 53.8-.2 62.9-1 8.4-.9 10.4.6 17 1.8 7.6 5.5 13.3 17.7 27.4 5.3 6.1 7 9.8 7.1 15.8.1 3.7-.3 4.5-4.1 7.6-4.9 4-8.4 5.8-16.2 8.7-3 1.2-6.5 3-7.8 4l-2.3 1.9 2.7 2.4c6.2 5.4 3 14.3-6.9 19.4-6.2 3.2-6.8 5.6-2.2 8.1 3 1.6 3.1 1.9 2.5 7-.2 2.9-1 5.9-1.6 6.7-.6.7-4.3 2.9-8.3 4.9-8.5 4.2-11.7 7.9-12.8 14.9-.5 2.7-2 6.8-3.4 9.2-2.4 4.1-2.9 4.5-7.8 5.2-7.2 1-25.3.4-33.2-1.1-1.1-.2-4.9-.7-8.5-1.1-3.6-.4-7.2-.9-8-1-.8-.2-3.7-.6-6.5-.9-2.7-.4-6.1-.8-7.5-1.1-1.4-.2-4.3-.7-6.5-1-2.2-.3-5.2-.8-6.7-1.1-6.7-1.4-21.8 3.9-28.5 10-3.2 2.9-4.2 4.5-4.8 8.3-.4 2.7-1 6.6-1.3 8.8-1.4 8.9-.7 35.8 1.1 43.4 7.7 32.1 27.6 54 60.1 66.2 4.4 1.7 14.4 5.7 22.1 8.9 18.5 7.7 25.3 10.3 42 16l14 4.9.3-4.6c.3-3.8-.3-5.5-3.8-11.3-2.8-4.7-4.4-8.6-4.9-12.3-.9-6.4-.7-33.4.3-42.7 1.6-14.7 5.1-32.7 6.7-34.5.5-.5.9-1.5.9-2.2 0-.7 2.2-5.3 4.9-10.1 4.1-7.3 6.1-12.1 7.7-18.7.1-.6.7-3.9 1.3-7.5.6-3.6 1.3-7.6 1.6-9 3.3-18 3.8-22.4 5-41.5C352 268.1 356 258 364 258c2.7 0 6.1 3 7.5 6.5 1.6 4.3 1.8 9 1.7 40-.1 20 .2 33.2.9 35.2 1.2 3.7 4.9 5.3 11.9 4.9 8.9-.6 12.2 3.1 13.9 15.4 1 7.6 3.2 10.9 7.3 11 3.2 0 14.2 8.4 16 12.1 1.2 2.7 2.9 4.1 6.5 5.7 4.9 2.1 7.2 4.1 11.3 10.1 2.1 3 2.4 4.6 2.3 12.5 0 12.9-1.6 18-12.5 40.1-8.4 17.1-11.9 25.7-14.4 35.5-3.1 12.2-3.1 13 .2 9.9 7-6.5 23.1-26.7 32.5-40.9 27.9-42.2 45.6-90.9 50.6-139.5 1-10.1 1-45.9-.1-54.5-1.5-12.3-8.3-43-9.9-44.6-.4-.4-.7-1.5-.7-2.4 0-2.6-8.7-24.7-14.4-36.5-9.4-19.7-24.2-42.2-38.8-59-5.5-6.4-25.7-26.7-32.3-32.6-9-7.8-10.8-9.3-21-17-26.8-20.1-48.7-31.5-80.7-41.9-10.1-3.2-30.2-8.6-35.8-9.5-1.9-.3-4.2-.8-5-1-.8-.2-3.1-.6-5-.9-1.9-.3-4.6-.8-6-1.1-1.4-.3-4.6-.7-7.1-1-2.5-.3-5.6-.8-7-1.1-4.3-.9-34.2-1.2-40.4-.3z"/></svg>